<mxfile host="app.diagrams.net" modified="2022-06-01T18:15:56.358Z" agent="5.0 (Windows NT 10.0; Win64; x64) AppleWebKit/537.36 (KHTML, like Gecko) Chrome/102.0.5005.63 Safari/537.36" etag="Ab_O87cNJqDOKvo4isck" version="18.2.0" type="github">
  <diagram id="bReoNBew56GqKcerDRGZ" name="Page-1">
    <mxGraphModel dx="2957" dy="912" grid="1" gridSize="10" guides="1" tooltips="1" connect="1" arrows="1" fold="1" page="1" pageScale="1" pageWidth="827" pageHeight="1169" math="0" shadow="0">
      <root>
        <mxCell id="0" />
        <mxCell id="1" parent="0" />
        <mxCell id="HdrjoUZDtp5OCqYVaalc-1" value="Покупка товара" style="swimlane;fontStyle=0;childLayout=stackLayout;horizontal=1;startSize=30;horizontalStack=0;resizeParent=1;resizeParentMax=0;resizeLast=0;collapsible=1;marginBottom=0;" vertex="1" parent="1">
          <mxGeometry x="-200" y="560" width="160" height="240" as="geometry" />
        </mxCell>
        <mxCell id="HdrjoUZDtp5OCqYVaalc-2" value="id" style="text;strokeColor=none;fillColor=none;align=left;verticalAlign=middle;spacingLeft=4;spacingRight=4;overflow=hidden;points=[[0,0.5],[1,0.5]];portConstraint=eastwest;rotatable=0;" vertex="1" parent="HdrjoUZDtp5OCqYVaalc-1">
          <mxGeometry y="30" width="160" height="30" as="geometry" />
        </mxCell>
        <mxCell id="HdrjoUZDtp5OCqYVaalc-3" value="id товара" style="text;strokeColor=none;fillColor=none;align=left;verticalAlign=middle;spacingLeft=4;spacingRight=4;overflow=hidden;points=[[0,0.5],[1,0.5]];portConstraint=eastwest;rotatable=0;" vertex="1" parent="HdrjoUZDtp5OCqYVaalc-1">
          <mxGeometry y="60" width="160" height="30" as="geometry" />
        </mxCell>
        <mxCell id="HdrjoUZDtp5OCqYVaalc-4" value="id user" style="text;strokeColor=none;fillColor=none;align=left;verticalAlign=middle;spacingLeft=4;spacingRight=4;overflow=hidden;points=[[0,0.5],[1,0.5]];portConstraint=eastwest;rotatable=0;" vertex="1" parent="HdrjoUZDtp5OCqYVaalc-1">
          <mxGeometry y="90" width="160" height="30" as="geometry" />
        </mxCell>
        <mxCell id="HdrjoUZDtp5OCqYVaalc-5" value="кол-во" style="text;strokeColor=none;fillColor=none;align=left;verticalAlign=middle;spacingLeft=4;spacingRight=4;overflow=hidden;points=[[0,0.5],[1,0.5]];portConstraint=eastwest;rotatable=0;" vertex="1" parent="HdrjoUZDtp5OCqYVaalc-1">
          <mxGeometry y="120" width="160" height="30" as="geometry" />
        </mxCell>
        <mxCell id="HdrjoUZDtp5OCqYVaalc-6" value="цена за штуку" style="text;strokeColor=none;fillColor=none;align=left;verticalAlign=middle;spacingLeft=4;spacingRight=4;overflow=hidden;points=[[0,0.5],[1,0.5]];portConstraint=eastwest;rotatable=0;" vertex="1" parent="HdrjoUZDtp5OCqYVaalc-1">
          <mxGeometry y="150" width="160" height="30" as="geometry" />
        </mxCell>
        <mxCell id="HdrjoUZDtp5OCqYVaalc-7" value="сумма" style="text;strokeColor=none;fillColor=none;align=left;verticalAlign=middle;spacingLeft=4;spacingRight=4;overflow=hidden;points=[[0,0.5],[1,0.5]];portConstraint=eastwest;rotatable=0;" vertex="1" parent="HdrjoUZDtp5OCqYVaalc-1">
          <mxGeometry y="180" width="160" height="30" as="geometry" />
        </mxCell>
        <mxCell id="HdrjoUZDtp5OCqYVaalc-8" value="статус" style="text;strokeColor=none;fillColor=none;align=left;verticalAlign=middle;spacingLeft=4;spacingRight=4;overflow=hidden;points=[[0,0.5],[1,0.5]];portConstraint=eastwest;rotatable=0;" vertex="1" parent="HdrjoUZDtp5OCqYVaalc-1">
          <mxGeometry y="210" width="160" height="30" as="geometry" />
        </mxCell>
        <mxCell id="HdrjoUZDtp5OCqYVaalc-9" value="Товары" style="swimlane;fontStyle=0;childLayout=stackLayout;horizontal=1;startSize=30;horizontalStack=0;resizeParent=1;resizeParentMax=0;resizeLast=0;collapsible=1;marginBottom=0;" vertex="1" parent="1">
          <mxGeometry x="-440" y="560" width="160" height="240" as="geometry" />
        </mxCell>
        <mxCell id="HdrjoUZDtp5OCqYVaalc-10" value="id" style="text;strokeColor=none;fillColor=none;align=left;verticalAlign=middle;spacingLeft=4;spacingRight=4;overflow=hidden;points=[[0,0.5],[1,0.5]];portConstraint=eastwest;rotatable=0;" vertex="1" parent="HdrjoUZDtp5OCqYVaalc-9">
          <mxGeometry y="30" width="160" height="30" as="geometry" />
        </mxCell>
        <mxCell id="HdrjoUZDtp5OCqYVaalc-11" value="название" style="text;strokeColor=none;fillColor=none;align=left;verticalAlign=middle;spacingLeft=4;spacingRight=4;overflow=hidden;points=[[0,0.5],[1,0.5]];portConstraint=eastwest;rotatable=0;" vertex="1" parent="HdrjoUZDtp5OCqYVaalc-9">
          <mxGeometry y="60" width="160" height="30" as="geometry" />
        </mxCell>
        <mxCell id="HdrjoUZDtp5OCqYVaalc-12" value="описание" style="text;strokeColor=none;fillColor=none;align=left;verticalAlign=middle;spacingLeft=4;spacingRight=4;overflow=hidden;points=[[0,0.5],[1,0.5]];portConstraint=eastwest;rotatable=0;" vertex="1" parent="HdrjoUZDtp5OCqYVaalc-9">
          <mxGeometry y="90" width="160" height="30" as="geometry" />
        </mxCell>
        <mxCell id="HdrjoUZDtp5OCqYVaalc-13" value="цена за штуку" style="text;strokeColor=none;fillColor=none;align=left;verticalAlign=middle;spacingLeft=4;spacingRight=4;overflow=hidden;points=[[0,0.5],[1,0.5]];portConstraint=eastwest;rotatable=0;" vertex="1" parent="HdrjoUZDtp5OCqYVaalc-9">
          <mxGeometry y="120" width="160" height="30" as="geometry" />
        </mxCell>
        <mxCell id="HdrjoUZDtp5OCqYVaalc-14" value="фото" style="text;strokeColor=none;fillColor=none;align=left;verticalAlign=middle;spacingLeft=4;spacingRight=4;overflow=hidden;points=[[0,0.5],[1,0.5]];portConstraint=eastwest;rotatable=0;" vertex="1" parent="HdrjoUZDtp5OCqYVaalc-9">
          <mxGeometry y="150" width="160" height="30" as="geometry" />
        </mxCell>
        <mxCell id="HdrjoUZDtp5OCqYVaalc-15" value="кол-во товара" style="text;strokeColor=none;fillColor=none;align=left;verticalAlign=middle;spacingLeft=4;spacingRight=4;overflow=hidden;points=[[0,0.5],[1,0.5]];portConstraint=eastwest;rotatable=0;" vertex="1" parent="HdrjoUZDtp5OCqYVaalc-9">
          <mxGeometry y="180" width="160" height="30" as="geometry" />
        </mxCell>
        <mxCell id="HdrjoUZDtp5OCqYVaalc-16" value="категория" style="text;strokeColor=none;fillColor=none;align=left;verticalAlign=middle;spacingLeft=4;spacingRight=4;overflow=hidden;points=[[0,0.5],[1,0.5]];portConstraint=eastwest;rotatable=0;" vertex="1" parent="HdrjoUZDtp5OCqYVaalc-9">
          <mxGeometry y="210" width="160" height="30" as="geometry" />
        </mxCell>
        <mxCell id="HdrjoUZDtp5OCqYVaalc-17" value="Пользователь" style="swimlane;fontStyle=0;childLayout=stackLayout;horizontal=1;startSize=30;horizontalStack=0;resizeParent=1;resizeParentMax=0;resizeLast=0;collapsible=1;marginBottom=0;" vertex="1" parent="1">
          <mxGeometry x="280" y="520" width="160" height="210" as="geometry" />
        </mxCell>
        <mxCell id="HdrjoUZDtp5OCqYVaalc-18" value="id" style="text;strokeColor=none;fillColor=none;align=left;verticalAlign=middle;spacingLeft=4;spacingRight=4;overflow=hidden;points=[[0,0.5],[1,0.5]];portConstraint=eastwest;rotatable=0;" vertex="1" parent="HdrjoUZDtp5OCqYVaalc-17">
          <mxGeometry y="30" width="160" height="30" as="geometry" />
        </mxCell>
        <mxCell id="HdrjoUZDtp5OCqYVaalc-19" value="ФИО" style="text;strokeColor=none;fillColor=none;align=left;verticalAlign=middle;spacingLeft=4;spacingRight=4;overflow=hidden;points=[[0,0.5],[1,0.5]];portConstraint=eastwest;rotatable=0;" vertex="1" parent="HdrjoUZDtp5OCqYVaalc-17">
          <mxGeometry y="60" width="160" height="30" as="geometry" />
        </mxCell>
        <mxCell id="HdrjoUZDtp5OCqYVaalc-20" value="Login" style="text;strokeColor=none;fillColor=none;align=left;verticalAlign=middle;spacingLeft=4;spacingRight=4;overflow=hidden;points=[[0,0.5],[1,0.5]];portConstraint=eastwest;rotatable=0;" vertex="1" parent="HdrjoUZDtp5OCqYVaalc-17">
          <mxGeometry y="90" width="160" height="30" as="geometry" />
        </mxCell>
        <mxCell id="HdrjoUZDtp5OCqYVaalc-21" value="Password" style="text;strokeColor=none;fillColor=none;align=left;verticalAlign=middle;spacingLeft=4;spacingRight=4;overflow=hidden;points=[[0,0.5],[1,0.5]];portConstraint=eastwest;rotatable=0;" vertex="1" parent="HdrjoUZDtp5OCqYVaalc-17">
          <mxGeometry y="120" width="160" height="30" as="geometry" />
        </mxCell>
        <mxCell id="HdrjoUZDtp5OCqYVaalc-22" value="id роли (должности)" style="text;strokeColor=none;fillColor=none;align=left;verticalAlign=middle;spacingLeft=4;spacingRight=4;overflow=hidden;points=[[0,0.5],[1,0.5]];portConstraint=eastwest;rotatable=0;" vertex="1" parent="HdrjoUZDtp5OCqYVaalc-17">
          <mxGeometry y="150" width="160" height="30" as="geometry" />
        </mxCell>
        <mxCell id="HdrjoUZDtp5OCqYVaalc-23" value="Email" style="text;strokeColor=none;fillColor=none;align=left;verticalAlign=middle;spacingLeft=4;spacingRight=4;overflow=hidden;points=[[0,0.5],[1,0.5]];portConstraint=eastwest;rotatable=0;" vertex="1" parent="HdrjoUZDtp5OCqYVaalc-17">
          <mxGeometry y="180" width="160" height="30" as="geometry" />
        </mxCell>
        <mxCell id="HdrjoUZDtp5OCqYVaalc-24" value="Оформление покупки" style="swimlane;fontStyle=0;childLayout=stackLayout;horizontal=1;startSize=30;horizontalStack=0;resizeParent=1;resizeParentMax=0;resizeLast=0;collapsible=1;marginBottom=0;" vertex="1" parent="1">
          <mxGeometry x="40" y="680" width="160" height="210" as="geometry" />
        </mxCell>
        <mxCell id="HdrjoUZDtp5OCqYVaalc-25" value="id" style="text;strokeColor=none;fillColor=none;align=left;verticalAlign=middle;spacingLeft=4;spacingRight=4;overflow=hidden;points=[[0,0.5],[1,0.5]];portConstraint=eastwest;rotatable=0;" vertex="1" parent="HdrjoUZDtp5OCqYVaalc-24">
          <mxGeometry y="30" width="160" height="30" as="geometry" />
        </mxCell>
        <mxCell id="HdrjoUZDtp5OCqYVaalc-26" value="id user" style="text;strokeColor=none;fillColor=none;align=left;verticalAlign=middle;spacingLeft=4;spacingRight=4;overflow=hidden;points=[[0,0.5],[1,0.5]];portConstraint=eastwest;rotatable=0;" vertex="1" parent="HdrjoUZDtp5OCqYVaalc-24">
          <mxGeometry y="60" width="160" height="30" as="geometry" />
        </mxCell>
        <mxCell id="HdrjoUZDtp5OCqYVaalc-27" value="&#xa;телефон" style="text;strokeColor=none;fillColor=none;align=left;verticalAlign=middle;spacingLeft=4;spacingRight=4;overflow=hidden;points=[[0,0.5],[1,0.5]];portConstraint=eastwest;rotatable=0;" vertex="1" parent="HdrjoUZDtp5OCqYVaalc-24">
          <mxGeometry y="90" width="160" height="30" as="geometry" />
        </mxCell>
        <mxCell id="HdrjoUZDtp5OCqYVaalc-28" value="Адрес" style="text;strokeColor=none;fillColor=none;align=left;verticalAlign=middle;spacingLeft=4;spacingRight=4;overflow=hidden;points=[[0,0.5],[1,0.5]];portConstraint=eastwest;rotatable=0;" vertex="1" parent="HdrjoUZDtp5OCqYVaalc-24">
          <mxGeometry y="120" width="160" height="30" as="geometry" />
        </mxCell>
        <mxCell id="HdrjoUZDtp5OCqYVaalc-29" value="итог" style="text;strokeColor=none;fillColor=none;align=left;verticalAlign=middle;spacingLeft=4;spacingRight=4;overflow=hidden;points=[[0,0.5],[1,0.5]];portConstraint=eastwest;rotatable=0;" vertex="1" parent="HdrjoUZDtp5OCqYVaalc-24">
          <mxGeometry y="150" width="160" height="30" as="geometry" />
        </mxCell>
        <mxCell id="HdrjoUZDtp5OCqYVaalc-30" value="Список покупок" style="text;strokeColor=none;fillColor=none;align=left;verticalAlign=middle;spacingLeft=4;spacingRight=4;overflow=hidden;points=[[0,0.5],[1,0.5]];portConstraint=eastwest;rotatable=0;" vertex="1" parent="HdrjoUZDtp5OCqYVaalc-24">
          <mxGeometry y="180" width="160" height="30" as="geometry" />
        </mxCell>
        <mxCell id="HdrjoUZDtp5OCqYVaalc-31" value="Оформление закупки" style="swimlane;fontStyle=0;childLayout=stackLayout;horizontal=1;startSize=30;horizontalStack=0;resizeParent=1;resizeParentMax=0;resizeLast=0;collapsible=1;marginBottom=0;" vertex="1" parent="1">
          <mxGeometry x="40" y="360" width="160" height="150" as="geometry" />
        </mxCell>
        <mxCell id="HdrjoUZDtp5OCqYVaalc-32" value="id" style="text;strokeColor=none;fillColor=none;align=left;verticalAlign=middle;spacingLeft=4;spacingRight=4;overflow=hidden;points=[[0,0.5],[1,0.5]];portConstraint=eastwest;rotatable=0;" vertex="1" parent="HdrjoUZDtp5OCqYVaalc-31">
          <mxGeometry y="30" width="160" height="30" as="geometry" />
        </mxCell>
        <mxCell id="HdrjoUZDtp5OCqYVaalc-33" value="id user (имеющий доступ)" style="text;strokeColor=none;fillColor=none;align=left;verticalAlign=middle;spacingLeft=4;spacingRight=4;overflow=hidden;points=[[0,0.5],[1,0.5]];portConstraint=eastwest;rotatable=0;" vertex="1" parent="HdrjoUZDtp5OCqYVaalc-31">
          <mxGeometry y="60" width="160" height="30" as="geometry" />
        </mxCell>
        <mxCell id="HdrjoUZDtp5OCqYVaalc-34" value="итог" style="text;strokeColor=none;fillColor=none;align=left;verticalAlign=middle;spacingLeft=4;spacingRight=4;overflow=hidden;points=[[0,0.5],[1,0.5]];portConstraint=eastwest;rotatable=0;" vertex="1" parent="HdrjoUZDtp5OCqYVaalc-31">
          <mxGeometry y="90" width="160" height="30" as="geometry" />
        </mxCell>
        <mxCell id="HdrjoUZDtp5OCqYVaalc-35" value="Список покупок" style="text;strokeColor=none;fillColor=none;align=left;verticalAlign=middle;spacingLeft=4;spacingRight=4;overflow=hidden;points=[[0,0.5],[1,0.5]];portConstraint=eastwest;rotatable=0;" vertex="1" parent="HdrjoUZDtp5OCqYVaalc-31">
          <mxGeometry y="120" width="160" height="30" as="geometry" />
        </mxCell>
        <mxCell id="HdrjoUZDtp5OCqYVaalc-36" value="Покупка в магазин" style="swimlane;fontStyle=0;childLayout=stackLayout;horizontal=1;startSize=30;horizontalStack=0;resizeParent=1;resizeParentMax=0;resizeLast=0;collapsible=1;marginBottom=0;" vertex="1" parent="1">
          <mxGeometry x="-200" y="360" width="160" height="180" as="geometry" />
        </mxCell>
        <mxCell id="HdrjoUZDtp5OCqYVaalc-37" value="id" style="text;strokeColor=none;fillColor=none;align=left;verticalAlign=middle;spacingLeft=4;spacingRight=4;overflow=hidden;points=[[0,0.5],[1,0.5]];portConstraint=eastwest;rotatable=0;" vertex="1" parent="HdrjoUZDtp5OCqYVaalc-36">
          <mxGeometry y="30" width="160" height="30" as="geometry" />
        </mxCell>
        <mxCell id="HdrjoUZDtp5OCqYVaalc-38" value="id товара" style="text;strokeColor=none;fillColor=none;align=left;verticalAlign=middle;spacingLeft=4;spacingRight=4;overflow=hidden;points=[[0,0.5],[1,0.5]];portConstraint=eastwest;rotatable=0;" vertex="1" parent="HdrjoUZDtp5OCqYVaalc-36">
          <mxGeometry y="60" width="160" height="30" as="geometry" />
        </mxCell>
        <mxCell id="HdrjoUZDtp5OCqYVaalc-39" value="кол-во" style="text;strokeColor=none;fillColor=none;align=left;verticalAlign=middle;spacingLeft=4;spacingRight=4;overflow=hidden;points=[[0,0.5],[1,0.5]];portConstraint=eastwest;rotatable=0;" vertex="1" parent="HdrjoUZDtp5OCqYVaalc-36">
          <mxGeometry y="90" width="160" height="30" as="geometry" />
        </mxCell>
        <mxCell id="HdrjoUZDtp5OCqYVaalc-40" value="цена за штуку" style="text;strokeColor=none;fillColor=none;align=left;verticalAlign=middle;spacingLeft=4;spacingRight=4;overflow=hidden;points=[[0,0.5],[1,0.5]];portConstraint=eastwest;rotatable=0;" vertex="1" parent="HdrjoUZDtp5OCqYVaalc-36">
          <mxGeometry y="120" width="160" height="30" as="geometry" />
        </mxCell>
        <mxCell id="HdrjoUZDtp5OCqYVaalc-41" value="сумма" style="text;strokeColor=none;fillColor=none;align=left;verticalAlign=middle;spacingLeft=4;spacingRight=4;overflow=hidden;points=[[0,0.5],[1,0.5]];portConstraint=eastwest;rotatable=0;" vertex="1" parent="HdrjoUZDtp5OCqYVaalc-36">
          <mxGeometry y="150" width="160" height="30" as="geometry" />
        </mxCell>
        <mxCell id="HdrjoUZDtp5OCqYVaalc-42" value="Категория" style="swimlane;fontStyle=0;childLayout=stackLayout;horizontal=1;startSize=30;horizontalStack=0;resizeParent=1;resizeParentMax=0;resizeLast=0;collapsible=1;marginBottom=0;" vertex="1" parent="1">
          <mxGeometry x="-680" y="640" width="160" height="90" as="geometry" />
        </mxCell>
        <mxCell id="HdrjoUZDtp5OCqYVaalc-43" value="id" style="text;strokeColor=none;fillColor=none;align=left;verticalAlign=middle;spacingLeft=4;spacingRight=4;overflow=hidden;points=[[0,0.5],[1,0.5]];portConstraint=eastwest;rotatable=0;" vertex="1" parent="HdrjoUZDtp5OCqYVaalc-42">
          <mxGeometry y="30" width="160" height="30" as="geometry" />
        </mxCell>
        <mxCell id="HdrjoUZDtp5OCqYVaalc-44" value="название" style="text;strokeColor=none;fillColor=none;align=left;verticalAlign=middle;spacingLeft=4;spacingRight=4;overflow=hidden;points=[[0,0.5],[1,0.5]];portConstraint=eastwest;rotatable=0;" vertex="1" parent="HdrjoUZDtp5OCqYVaalc-42">
          <mxGeometry y="60" width="160" height="30" as="geometry" />
        </mxCell>
        <mxCell id="HdrjoUZDtp5OCqYVaalc-45" value="Роли (Должность)" style="swimlane;fontStyle=0;childLayout=stackLayout;horizontal=1;startSize=30;horizontalStack=0;resizeParent=1;resizeParentMax=0;resizeLast=0;collapsible=1;marginBottom=0;" vertex="1" parent="1">
          <mxGeometry x="520" y="600" width="160" height="90" as="geometry" />
        </mxCell>
        <mxCell id="HdrjoUZDtp5OCqYVaalc-46" value="id" style="text;strokeColor=none;fillColor=none;align=left;verticalAlign=middle;spacingLeft=4;spacingRight=4;overflow=hidden;points=[[0,0.5],[1,0.5]];portConstraint=eastwest;rotatable=0;" vertex="1" parent="HdrjoUZDtp5OCqYVaalc-45">
          <mxGeometry y="30" width="160" height="30" as="geometry" />
        </mxCell>
        <mxCell id="HdrjoUZDtp5OCqYVaalc-47" value="название" style="text;strokeColor=none;fillColor=none;align=left;verticalAlign=middle;spacingLeft=4;spacingRight=4;overflow=hidden;points=[[0,0.5],[1,0.5]];portConstraint=eastwest;rotatable=0;" vertex="1" parent="HdrjoUZDtp5OCqYVaalc-45">
          <mxGeometry y="60" width="160" height="30" as="geometry" />
        </mxCell>
        <mxCell id="HdrjoUZDtp5OCqYVaalc-48" value="" style="edgeStyle=entityRelationEdgeStyle;fontSize=12;html=1;endArrow=ERoneToMany;rounded=0;" edge="1" parent="1" source="HdrjoUZDtp5OCqYVaalc-46" target="HdrjoUZDtp5OCqYVaalc-22">
          <mxGeometry width="100" height="100" relative="1" as="geometry">
            <mxPoint x="-140" y="900" as="sourcePoint" />
            <mxPoint x="-40" y="800" as="targetPoint" />
          </mxGeometry>
        </mxCell>
        <mxCell id="HdrjoUZDtp5OCqYVaalc-49" value="" style="edgeStyle=entityRelationEdgeStyle;fontSize=12;html=1;endArrow=ERoneToMany;rounded=0;" edge="1" parent="1" source="HdrjoUZDtp5OCqYVaalc-18" target="HdrjoUZDtp5OCqYVaalc-26">
          <mxGeometry width="100" height="100" relative="1" as="geometry">
            <mxPoint x="130" y="630" as="sourcePoint" />
            <mxPoint x="230" y="530" as="targetPoint" />
          </mxGeometry>
        </mxCell>
        <mxCell id="HdrjoUZDtp5OCqYVaalc-50" value="" style="edgeStyle=entityRelationEdgeStyle;fontSize=12;html=1;endArrow=ERoneToMany;rounded=0;" edge="1" parent="1" source="HdrjoUZDtp5OCqYVaalc-10" target="HdrjoUZDtp5OCqYVaalc-3">
          <mxGeometry width="100" height="100" relative="1" as="geometry">
            <mxPoint x="-380" y="910" as="sourcePoint" />
            <mxPoint x="-280" y="810" as="targetPoint" />
          </mxGeometry>
        </mxCell>
        <mxCell id="HdrjoUZDtp5OCqYVaalc-51" value="" style="edgeStyle=entityRelationEdgeStyle;fontSize=12;html=1;endArrow=ERoneToMany;rounded=0;" edge="1" parent="1" source="HdrjoUZDtp5OCqYVaalc-43" target="HdrjoUZDtp5OCqYVaalc-16">
          <mxGeometry width="100" height="100" relative="1" as="geometry">
            <mxPoint x="-570" y="790" as="sourcePoint" />
            <mxPoint x="-470" y="690" as="targetPoint" />
          </mxGeometry>
        </mxCell>
        <mxCell id="HdrjoUZDtp5OCqYVaalc-52" value="" style="edgeStyle=entityRelationEdgeStyle;fontSize=12;html=1;endArrow=ERoneToMany;rounded=0;" edge="1" parent="1" source="HdrjoUZDtp5OCqYVaalc-18" target="HdrjoUZDtp5OCqYVaalc-33">
          <mxGeometry width="100" height="100" relative="1" as="geometry">
            <mxPoint x="-70" y="410" as="sourcePoint" />
            <mxPoint x="30" y="310" as="targetPoint" />
          </mxGeometry>
        </mxCell>
        <mxCell id="HdrjoUZDtp5OCqYVaalc-54" value="" style="edgeStyle=entityRelationEdgeStyle;fontSize=12;html=1;endArrow=ERoneToMany;rounded=0;" edge="1" parent="1" source="HdrjoUZDtp5OCqYVaalc-10" target="HdrjoUZDtp5OCqYVaalc-38">
          <mxGeometry width="100" height="100" relative="1" as="geometry">
            <mxPoint x="-270" y="615" as="sourcePoint" />
            <mxPoint x="-190" y="645" as="targetPoint" />
          </mxGeometry>
        </mxCell>
        <mxCell id="HdrjoUZDtp5OCqYVaalc-55" value="" style="edgeStyle=entityRelationEdgeStyle;fontSize=12;html=1;endArrow=ERoneToMany;rounded=0;" edge="1" parent="1" source="HdrjoUZDtp5OCqYVaalc-37" target="HdrjoUZDtp5OCqYVaalc-35">
          <mxGeometry width="100" height="100" relative="1" as="geometry">
            <mxPoint x="30" y="470" as="sourcePoint" />
            <mxPoint x="130" y="370" as="targetPoint" />
          </mxGeometry>
        </mxCell>
        <mxCell id="HdrjoUZDtp5OCqYVaalc-56" value="" style="edgeStyle=entityRelationEdgeStyle;fontSize=12;html=1;endArrow=ERoneToMany;rounded=0;" edge="1" parent="1" source="HdrjoUZDtp5OCqYVaalc-18" target="HdrjoUZDtp5OCqYVaalc-4">
          <mxGeometry width="100" height="100" relative="1" as="geometry">
            <mxPoint x="-10" y="900" as="sourcePoint" />
            <mxPoint x="90" y="800" as="targetPoint" />
          </mxGeometry>
        </mxCell>
        <mxCell id="HdrjoUZDtp5OCqYVaalc-57" value="" style="edgeStyle=entityRelationEdgeStyle;fontSize=12;html=1;endArrow=ERoneToMany;rounded=0;" edge="1" parent="1" source="HdrjoUZDtp5OCqYVaalc-2" target="HdrjoUZDtp5OCqYVaalc-30">
          <mxGeometry width="100" height="100" relative="1" as="geometry">
            <mxPoint x="40" y="670" as="sourcePoint" />
            <mxPoint x="140" y="570" as="targetPoint" />
          </mxGeometry>
        </mxCell>
      </root>
    </mxGraphModel>
  </diagram>
</mxfile>
